<svg id="Livello_1" data-name="Livello 1" xmlns="http://www.w3.org/2000/svg" viewBox="0 0 595 842"><defs><style>.cls-1{fill:#040006;}.cls-1,.cls-2{fill-rule:evenodd;}.cls-2,.cls-3{fill:#c74f42;}.cls-4,.cls-5{fill:#211915;}.cls-5{stroke:#211915;stroke-miterlimit:10;stroke-width:0.25px;}</style></defs><title>Prancheta 2</title><path class="cls-1" d="M384.1,433.25l24.52,0q11.78.54,11.62,14.41t-11.14,14.4l-25.27,0Zm8.82,21.67,14.08,0a3.41,3.41,0,0,0,3-2,9.67,9.67,0,0,0,1.15-5.07,10.53,10.53,0,0,0-1.38-5.84,4.09,4.09,0,0,0-3.48-1.55H393Z"/><polygon class="cls-2" points="189.74 479.18 424.24 479.18 422.49 480.27 187.99 480.27 189.74 479.18 189.74 479.18"/><path class="cls-3" d="M305.31,391.49c-31.5,21.51-48.94,38.66-56.24,69.76h-5.13l-11.72-24.86,9.35-11.71,7.76,20.47h.2c6.53-21.26,16.51-42.17,39.69-59l16.09,5.31Z"/><polygon class="cls-4" points="230.65 433.26 207.76 461.25 201.79 461.25 187.99 415.41 201.59 415.41 208.76 442.02 208.96 442.02 230.58 415.41 237.5 415.4 240 421.54 230.65 433.26 230.65 433.26"/><path class="cls-5" d="M345.44,441.75h15.79v-.07l0,0a.46.46,0,0,0,.1-.1v-.79a3.25,3.25,0,0,0-.13-1,3.33,3.33,0,0,0-.4-.83,4.89,4.89,0,0,0-.49-.76,2.86,2.86,0,0,0-.77-.63,4.3,4.3,0,0,0-1-.53,9.32,9.32,0,0,0-1.13-.33c-.4-.09-.82-.17-1.26-.23a8.92,8.92,0,0,0-1.39-.1,12,12,0,0,0-1.63.1c-.51.06-1,.14-1.49.23a13.92,13.92,0,0,0-1.33.43,7.43,7.43,0,0,0-1.13.56,8.55,8.55,0,0,0-1.12.77,7.54,7.54,0,0,0-1,1,12.66,12.66,0,0,0-.89,1.13,7.37,7.37,0,0,0-.77,1.32v-.13Zm28.26,5.18H344.12v.59h0c-.05.05-.07.08-.07.1v.43a6.71,6.71,0,0,0,.17,1.6,5.07,5.07,0,0,0,.49,1.32,5.84,5.84,0,0,0,1,1.13,11.41,11.41,0,0,0,1.32,1,9.79,9.79,0,0,0,3.39,1.32,19,19,0,0,0,1.95.3,20.74,20.74,0,0,0,2.09.1c.49,0,1,0,1.63-.07l1.76-.13,1.82-.26c.6-.09,1.25-.2,2-.34l2.09-.43,2.29-.49c.79-.23,1.62-.44,2.49-.64s1.75-.43,2.68-.69l-2.39,7.36c-.7.22-1.4.42-2.09.6s-1.38.33-2.09.46-1.4.25-2.09.34-1.33.15-1.95.19l-2,.24c-.64.06-1.27.12-1.89.16s-1.22.08-1.82.1l-1.76,0a48,48,0,0,1-4.91-.23,42,42,0,0,1-4.31-.63,29.44,29.44,0,0,1-3.85-1.26,19.15,19.15,0,0,1-3.31-1.72,14.13,14.13,0,0,1-2.72-2.16,10.93,10.93,0,0,1-1.86-2.49,12.23,12.23,0,0,1-1.53-6,12.89,12.89,0,0,1,.43-3.31,12.25,12.25,0,0,1,1.3-3.06,16.52,16.52,0,0,1,2.25-2.78,23.83,23.83,0,0,1,3.12-2.59,26.4,26.4,0,0,1,3.75-2.09,27.5,27.5,0,0,1,4.08-1.49,35.67,35.67,0,0,1,4.58-.93,36.28,36.28,0,0,1,5-.33,38.67,38.67,0,0,1,4.28.23,27.28,27.28,0,0,1,3.82.7,24.24,24.24,0,0,1,3.28,1.09,13.48,13.48,0,0,1,2.75,1.56,12.47,12.47,0,0,1,2.29,1.89,12.63,12.63,0,0,1,1.63,2.16,11.86,11.86,0,0,1,.93,2.39,10.4,10.4,0,0,1,.33,2.65v.8c-.05,0-.07.07-.07.09v.1a.35.35,0,0,1,0,.14.28.28,0,0,0,0,.13.31.31,0,0,1,0,.13.35.35,0,0,0,0,.13v.54a.41.41,0,0,1,0,.16.61.61,0,0,0,0,.17,3.34,3.34,0,0,0-.1.36,2.05,2.05,0,0,0,0,.37,1.22,1.22,0,0,1,0,.26c0,.09-.06.18-.1.27a.93.93,0,0,0-.1.26.84.84,0,0,0,0,.27v-.13Z"/><path class="cls-4" d="M325.54,432.8l-1.06,7.09h-.4a.8.8,0,0,1-.23,0,.48.48,0,0,1-.17-.1h-.13a.17.17,0,0,1-.13-.07h-.27a.31.31,0,0,1-.13,0,.31.31,0,0,0-.13,0c-.05,0-.07,0-.07,0s0,0-.07,0l-.13,0a.31.31,0,0,0-.13,0,1,1,0,0,0-.27-.1l-.26-.1a.2.2,0,0,1-.13,0,.35.35,0,0,0-.14,0,1.39,1.39,0,0,0-.26-.1,1,1,0,0,1-.27-.1l-1.46-.3-1.39-.3c-.49-.08-1-.18-1.43-.29a9.47,9.47,0,0,0-1.36-.24,8.35,8.35,0,0,0-1.26-.16c-.4,0-.77-.06-1.13-.1s-.67-.08-1-.1l-.76,0q-.33,0-.63,0a3.1,3.1,0,0,0-.56.1,1.06,1.06,0,0,0-.37.06.72.72,0,0,1-.3.07.24.24,0,0,1-.16.07.25.25,0,0,0-.17.06,1.28,1.28,0,0,0-.33.17,2.76,2.76,0,0,0-.27.23.33.33,0,0,0-.16.23,1.77,1.77,0,0,0,0,.3v.53l0,.07a.11.11,0,0,0,.1.07l0,0,0,0a.2.2,0,0,0,0,.13.41.41,0,0,0,.1.14l0,0a.15.15,0,0,1,0,.1c.05,0,.07,0,.07,0s0,.06.07.1a.24.24,0,0,1,.13,0,.38.38,0,0,1,.13.1c.18.17.37.34.56.49a4.77,4.77,0,0,0,.64.43l.33.2a1.45,1.45,0,0,0,.39.2,2.3,2.3,0,0,0,.44.23,3.62,3.62,0,0,1,.43.24c.31.17.62.34.93.49s.64.3,1,.44l.53.26a2.48,2.48,0,0,0,.53.2,4.91,4.91,0,0,0,.47.27l.53.26c.48.27.94.53,1.36.8s.83.53,1.22.79c.23.14.44.28.64.43a4.11,4.11,0,0,0,.63.43c.22.18.44.35.66.5l.6.43a7.39,7.39,0,0,1,1.06,1,5.21,5.21,0,0,1,.73,1.16,4.55,4.55,0,0,1,.46,1.2,5.6,5.6,0,0,1,.13,1.26,6.28,6.28,0,0,1-1.19,3.78,8.22,8.22,0,0,1-1.49,1.59,14.31,14.31,0,0,1-2.09,1.39,15.87,15.87,0,0,1-2.52,1.13,24.17,24.17,0,0,1-2.86.8q-1.45.19-3.18.36c-1.15.11-2.34.17-3.58.17h-.87a1.66,1.66,0,0,0-.46-.07h-1.19a.22.22,0,0,0-.14-.06h-.66a4.73,4.73,0,0,1-.53,0,3.29,3.29,0,0,1-.53-.1h-.53a4.58,4.58,0,0,1-.53,0,4.51,4.51,0,0,1-.53-.1l-.27,0a1.27,1.27,0,0,0-.26,0h-.57a2.53,2.53,0,0,1-.56-.06,3.08,3.08,0,0,1-.53,0l-.6-.09-1.13-.24c-.35-.06-.71-.14-1.06-.23l-.56-.13-.57-.13a3.8,3.8,0,0,1-.59-.17,4.3,4.3,0,0,0-.6-.17,10,10,0,0,1-1.19-.33c-.4-.13-.8-.29-1.2-.46l1.92-6.84.17.14a2.36,2.36,0,0,0,.23.13,1.32,1.32,0,0,0,.3.1l.3,0,0,0a.17.17,0,0,0,.1,0c.05,0,.08.07.1.07h.37a.1.1,0,0,0,.06.09.25.25,0,0,0,.14,0h.26l1.23.3q.63.17,1.29.3l1.26.26,1.33.27c.4.08.82.16,1.26.23s.88.12,1.33.16a10,10,0,0,0,1.26.07h2.22a5.63,5.63,0,0,0,.9-.07.85.85,0,0,0,.23,0,.75.75,0,0,1,.23,0,3.67,3.67,0,0,0,.5-.17l.43-.16c.22-.09.4-.17.53-.24a1.14,1.14,0,0,0,.56-.56.85.85,0,0,0,.1-.4,1.51,1.51,0,0,0-.13-.63,1.48,1.48,0,0,0-.46-.56,3.1,3.1,0,0,0-.73-.63c-.31-.2-.67-.41-1.07-.63l-.59-.3c-.22-.11-.45-.21-.67-.3a6.09,6.09,0,0,1-.63-.3l-.63-.36a7.3,7.3,0,0,0-.66-.37l-.66-.36-.67-.4-.66-.4a16,16,0,0,1-1.43-.73c-.46-.26-.89-.53-1.29-.79l-1.26-.8c-.4-.27-.8-.55-1.19-.86a6.42,6.42,0,0,1-1-1c-.29-.33-.54-.65-.77-1a8.07,8.07,0,0,1-.43-1,3.42,3.42,0,0,1-.16-1.09,8.28,8.28,0,0,1,.23-2,5.38,5.38,0,0,1,.83-1.83,8.25,8.25,0,0,1,1.49-1.72,11.53,11.53,0,0,1,2.09-1.46,18.51,18.51,0,0,1,2.55-1.16,21.53,21.53,0,0,1,3-.83c1-.22,2.09-.4,3.21-.53a29,29,0,0,1,3.55-.2h1.26a.73.73,0,0,0,.3.06h1.23a.17.17,0,0,0,.13.07h.47a.24.24,0,0,0,.16.07h.57a.19.19,0,0,0,.13.06h.46a.19.19,0,0,0,.14.07h.13a4.94,4.94,0,0,0,.53.1,4.71,4.71,0,0,0,.53,0,3.45,3.45,0,0,0,.56.1,4.82,4.82,0,0,1,.57.1,7.59,7.59,0,0,1,1.09.23c.38.11.77.21,1.16.3l1.13.3c.4.11.8.23,1.2.37a3.28,3.28,0,0,1,.63.19,2.92,2.92,0,0,0,.56.2l.63.24c.2.06.41.14.63.23v-.13Z"/><polygon class="cls-4" points="286.67 430.61 280.3 460.72 266.83 460.72 273.2 430.61 286.67 430.61 286.67 430.61 286.67 430.61 286.67 430.61"/><path class="cls-2" d="M296,422.68c-.38-1.08-2.55-.33-2.5-1.1.18-2.7,9.36-4.12,7.76-7.71-2.77-6.25-31.8,2.48-28.16,12.15,2.4,6.37,23.72-1,22.9-3.34Z"/></svg>