<?xml version="1.0" encoding="utf-8"?>
<!-- Generator: Adobe Illustrator 23.0.0, SVG Export Plug-In . SVG Version: 6.00 Build 0)  -->
<svg version="1.1" id="Layer_1" xmlns="http://www.w3.org/2000/svg" xmlns:xlink="http://www.w3.org/1999/xlink" x="0px" y="0px"
	 viewBox="0 0 1200 1200" style="enable-background:new 0 0 1200 1200;" xml:space="preserve">
<style type="text/css">
	.st0{fill-rule:evenodd;clip-rule:evenodd;fill:#8E8E8E;}
	.st1{fill-rule:evenodd;clip-rule:evenodd;fill:#E34E3F;}
	.st2{fill:#E34E3F;}
	.st3{fill:#8E8E8E;}
	.st4{fill:#8E8E8E;stroke:#1E120D;stroke-width:0.25;stroke-miterlimit:10;}
</style>
<title>logo-wised</title>
<path class="st0" d="M859.5,581.8l78.3,0.1c25.1,1.1,37.4,16.5,37.1,46c-0.3,29.5-12.2,44.9-35.6,46l-80.7-0.1L859.5,581.8z
	 M887.8,651l45,0.1c4.7-0.5,7.9-2.6,9.5-6.3c2.3-3.4,3.5-8.8,3.7-16.2c0.2-7.4-1.3-13.6-4.4-18.7c-2.1-3.1-5.8-4.8-11.1-4.9h-42.3
	L887.8,651z"/>
<polygon class="st1" points="238.8,728.5 987.7,728.5 982.2,732 233.2,732 238.8,728.5 "/>
<path class="st2" d="M607.9,448.4c-100.6,68.7-156.3,123.5-179.6,222.8h-16.4l-37.4-79.4l29.9-37.4l24.8,65.4h0.6
	c20.8-67.9,52.7-134.7,126.8-188.4L607.9,448.4L607.9,448.4z"/>
<polygon class="st3" points="369.4,581.8 296.3,671.3 277.2,671.3 233.2,524.8 276.6,524.8 299.5,609.8 300.1,609.8 369.2,524.8 
	391.3,524.8 399.3,544.4 369.4,581.8 "/>
<path class="st4" d="M736.1,609h50.4v-0.2l0.1-0.1l0.3-0.3v-2.5c0-1-0.1-2.1-0.4-3.1c-0.3-0.9-0.7-1.8-1.3-2.6
	c-0.4-0.9-1-1.7-1.6-2.4c-0.7-0.8-1.5-1.5-2.4-2c-1-0.7-2-1.3-3.2-1.7c-1.2-0.4-2.4-0.8-3.6-1.1c-1.3-0.3-2.6-0.5-4-0.7
	c-1.5-0.2-3-0.3-4.5-0.3c-1.7,0-3.5,0.1-5.2,0.3c-1.6,0.2-3.2,0.4-4.8,0.7c-1.4,0.4-2.8,0.8-4.2,1.4c-1.3,0.5-2.5,1.1-3.6,1.8
	c-1.3,0.7-2.5,1.5-3.6,2.4c-1.1,0.9-2.2,2-3.2,3.1c-1,1.1-1.9,2.3-2.9,3.6c-1,1.3-1.8,2.7-2.4,4.2L736.1,609L736.1,609z
	 M826.3,625.5h-94.5v1.9l0,0c-0.1,0.1-0.2,0.2-0.2,0.3v1.4c0,1.7,0.2,3.4,0.5,5.1c0.3,1.5,0.9,2.9,1.6,4.2c0.9,1.3,2,2.5,3.2,3.6
	c1.3,1.2,2.7,2.2,4.2,3.2c1.6,1,3.2,1.9,5,2.5c1.9,0.7,3.8,1.3,5.8,1.7c2.1,0.4,4.2,0.8,6.3,1c2.2,0.2,4.4,0.3,6.7,0.3
	c1.6,0,3.3-0.1,5.2-0.2l5.6-0.4l5.8-0.8c1.9-0.3,4-0.6,6.3-1.1c2.1-0.4,4.3-0.9,6.7-1.4c2.3-0.5,4.8-1,7.3-1.6
	c2.5-0.7,5.2-1.4,7.9-2c2.8-0.6,5.6-1.4,8.6-2.2l-7.6,23.5c-2.3,0.7-4.5,1.3-6.7,1.9s-4.4,1.1-6.7,1.5c-2.3,0.4-4.5,0.8-6.7,1.1
	s-4.3,0.5-6.2,0.6c-2.3,0.3-4.4,0.5-6.5,0.7c-2,0.2-4.1,0.4-6,0.5c-2,0.1-3.9,0.2-5.8,0.3s-3.8,0.1-5.6,0.1
	c-5.5,0-10.7-0.2-15.7-0.7c-4.9-0.5-9.5-1.2-13.8-2.1c-4.2-1.1-8.3-2.4-12.3-4c-3.7-1.5-7.2-3.3-10.6-5.5c-3.2-1.9-6.1-4.2-8.7-6.9
	c-2.3-2.4-4.3-5-5.9-7.9c-1.6-2.8-2.8-5.9-3.6-9c-0.9-3.3-1.3-6.7-1.3-10.1c0-3.6,0.5-7.1,1.4-10.6c0.9-3.4,2.3-6.7,4.1-9.8
	c2.1-3.2,4.5-6.2,7.2-8.9c3.1-3,6.4-5.8,10-8.3c3.8-2.5,7.8-4.8,12-6.7c4.2-1.9,8.6-3.5,13-4.8c9.9-2.7,20.2-4,30.5-4
	c4.6,0,9.1,0.2,13.7,0.7c4.1,0.5,8.2,1.2,12.2,2.2c3.6,0.9,7.1,2.1,10.5,3.5c3.1,1.3,6.1,3,8.8,5c5.1,3.3,9.4,7.7,12.5,12.9
	c1.3,2.4,2.3,5,3,7.6c0.7,2.8,1.1,5.6,1.1,8.5v2.5c-0.1,0.1-0.2,0.2-0.2,0.3v0.3c0,0.1,0,0.3-0.1,0.4c-0.1,0.1-0.1,0.3-0.1,0.4
	c0,0.1,0,0.3-0.1,0.4c-0.1,0.1-0.1,0.3-0.1,0.4v1.7c0,0.2,0,0.4-0.1,0.5s-0.1,0.3-0.1,0.5c-0.1,0.4-0.2,0.8-0.3,1.2
	c-0.1,0.4-0.1,0.8-0.1,1.2c0,0.3,0,0.6-0.1,0.8c-0.1,0.3-0.2,0.6-0.3,0.8s-0.2,0.6-0.3,0.8c-0.1,0.3-0.1,0.6-0.1,0.8L826.3,625.5
	L826.3,625.5z"/>
<path class="st3" d="M672.5,580.3l-3.4,22.7h-1.3c-0.2,0-0.5,0-0.7-0.1c-0.2-0.1-0.4-0.2-0.5-0.3h-0.4c-0.2,0-0.3-0.1-0.4-0.2h-0.8
	c-0.1,0-0.3,0-0.4-0.1s-0.3-0.1-0.4-0.1c-0.1,0-0.2,0-0.2-0.1c0-0.1-0.1-0.1-0.2-0.1c-0.1,0-0.3,0-0.4-0.1s-0.3-0.1-0.4-0.1
	c-0.3-0.1-0.6-0.2-0.8-0.3c-0.3-0.1-0.6-0.2-0.8-0.3c-0.1,0-0.3,0-0.4-0.1c-0.1-0.1-0.3-0.1-0.4-0.1c-0.3-0.1-0.6-0.2-0.8-0.3
	c-0.3-0.1-0.6-0.2-0.8-0.3c-1.6-0.3-3.1-0.6-4.7-1c-1.6-0.4-3-0.7-4.5-1c-1.6-0.3-3.1-0.6-4.6-1c-1.4-0.3-2.9-0.6-4.3-0.7
	c-1.3-0.3-2.7-0.4-4-0.5c-1.3-0.1-2.5-0.2-3.6-0.3c-1.1-0.1-2.2-0.2-3.1-0.3c-0.9-0.1-1.7-0.1-2.4-0.1c-0.7,0-1.3,0-2,0.1
	c-0.6,0-1.2,0.1-1.8,0.3c-0.4,0-0.8,0.1-1.2,0.2c-0.3,0.1-0.6,0.2-1,0.2c-0.1,0.1-0.3,0.2-0.5,0.2c-0.2,0-0.4,0.1-0.5,0.2
	c-0.4,0.1-0.7,0.3-1.1,0.5c-0.3,0.2-0.6,0.5-0.8,0.7c-0.3,0.1-0.5,0.4-0.5,0.7c-0.1,0.3-0.1,0.6-0.1,1v1.7l0.1,0.2
	c0.1,0.1,0.2,0.2,0.3,0.2l0.1,0.1l0.1,0.1c0,0.1,0,0.3,0.1,0.4c0.1,0.2,0.2,0.3,0.3,0.4l0.1,0.1c0.1,0.1,0.1,0.2,0.1,0.3
	c0.1,0,0.2,0,0.2,0.1c0,0.1,0.1,0.2,0.2,0.3c0.1,0,0.3,0,0.4,0.1c0.2,0.1,0.3,0.2,0.4,0.3c0.6,0.6,1.2,1.1,1.8,1.6
	c0.6,0.5,1.3,1,2,1.4c0.4,0.2,0.7,0.4,1.1,0.6c0.4,0.3,0.8,0.5,1.3,0.6c0.4,0.3,0.9,0.5,1.4,0.7c0.5,0.2,1,0.5,1.4,0.7
	c1,0.6,2,1.1,3,1.6c1,0.5,2.1,1,3.2,1.4l1.7,0.8c0.5,0.3,1.1,0.5,1.7,0.6c0.5,0.3,1,0.6,1.5,0.9l1.7,0.8c1.6,0.8,3,1.7,4.3,2.5
	c1.3,0.8,2.7,1.7,3.9,2.5c0.7,0.4,1.4,0.9,2,1.4c0.6,0.5,1.3,1,2,1.4c0.7,0.6,1.4,1.1,2.1,1.6c0.7,0.5,1.3,1,1.9,1.4
	c1.2,1,2.4,2.1,3.4,3.3c0.9,1.1,1.7,2.4,2.3,3.7c0.7,1.2,1.2,2.5,1.5,3.8c0.3,1.3,0.4,2.7,0.4,4c0,2.2-0.3,4.3-1,6.4
	c-0.7,2-1.6,4-2.9,5.7c-1.3,1.9-2.9,3.6-4.8,5.1c-2.1,1.7-4.3,3.2-6.7,4.5c-2.6,1.4-5.3,2.6-8.1,3.6c-3,1-6,1.9-9.1,2.5
	c-3.1,0.4-6.5,0.8-10.2,1.2s-7.5,0.5-11.4,0.5h-2.8c-0.5-0.1-1-0.2-1.5-0.2h-3.8c-0.1-0.1-0.3-0.2-0.4-0.2h-2.1
	c-0.6,0-1.1,0-1.7-0.1c-0.6-0.1-1.1-0.2-1.7-0.3h-1.7c-0.6,0-1.1,0-1.7-0.1c-0.6-0.1-1.1-0.2-1.7-0.3c-0.3,0-0.6,0-0.8-0.1
	c-0.3-0.1-0.6-0.1-0.8-0.1h-1.8c-0.6,0-1.2-0.1-1.8-0.2c-0.6,0-1.1,0-1.7-0.1c-0.6-0.1-1.2-0.2-1.9-0.3c-1.3-0.3-2.5-0.5-3.6-0.7
	c-1.1-0.2-2.3-0.4-3.4-0.7c-0.6-0.1-1.2-0.3-1.8-0.4c-0.6-0.1-1.2-0.3-1.8-0.4c-0.6-0.1-1.3-0.3-1.9-0.5c-0.6-0.2-1.3-0.4-1.9-0.5
	c-1.3-0.3-2.6-0.6-3.8-1.1c-1.3-0.4-2.5-0.9-3.8-1.5l6.1-21.8c0.2,0.2,0.3,0.3,0.5,0.4c0.2,0.2,0.5,0.3,0.7,0.4
	c0.3,0.1,0.6,0.3,1,0.3c0.3,0.1,0.6,0.1,1,0.1l0.1,0.1c0.1,0.1,0.2,0.1,0.3,0.1c0.1,0.1,0.2,0.2,0.3,0.2h1.2c0,0.1,0.1,0.3,0.2,0.3
	c0.1,0.1,0.3,0.1,0.4,0.1h0.8c1.3,0.3,2.6,0.6,3.9,1s2.7,0.7,4.1,1c1.3,0.3,2.6,0.6,4,0.8l4.2,0.9c1.3,0.3,2.6,0.5,4,0.7
	c1.4,0.2,2.8,0.4,4.2,0.5c1.3,0.1,2.7,0.2,4,0.2h7.1c0.9,0,1.9-0.1,2.8-0.2c0.3,0,0.5,0,0.7-0.1c0.2-0.1,0.5-0.1,0.7-0.1
	c0.5-0.1,1.1-0.3,1.6-0.5c0.5-0.2,1-0.4,1.4-0.5c0.7-0.3,1.3-0.5,1.7-0.7c0.8-0.4,1.4-1,1.8-1.8c0.2-0.4,0.3-0.8,0.3-1.3
	c0-1.5-0.7-2.9-1.9-3.8c-0.7-0.8-1.4-1.5-2.3-2c-1-0.6-2.1-1.3-3.4-2l-1.9-1c-0.7-0.4-1.4-0.7-2.1-1c-0.7-0.3-1.4-0.6-2-1
	c-0.6-0.4-1.3-0.7-2-1.2c-0.7-0.4-1.4-0.8-2.1-1.2c-0.7-0.4-1.4-0.7-2.1-1.2l-2.1-1.3l-2.1-1.3c-1.6-0.7-3.1-1.5-4.6-2.3
	s-2.9-1.7-4.1-2.5c-1.4-0.8-2.8-1.7-4-2.5s-2.5-1.8-3.8-2.8c-1.2-0.9-2.3-1.9-3.3-3.1c-0.9-1.1-1.8-2.1-2.4-3.1
	c-0.5-1.1-1-2.2-1.4-3.3c-0.4-1.1-0.5-2.3-0.5-3.5c0-2.2,0.2-4.3,0.7-6.5c0.5-2.1,1.4-4.1,2.7-5.8c1.3-2,2.9-3.9,4.8-5.5
	c2-1.8,4.3-3.4,6.7-4.7c2.6-1.4,5.3-2.7,8.2-3.7c3.1-1.1,6.2-2,9.4-2.7c3.3-0.7,6.7-1.3,10.3-1.7c3.8-0.4,7.5-0.6,11.3-0.6h4
	c0.3,0.1,0.6,0.2,1,0.2h3.9c0.1,0.1,0.3,0.2,0.4,0.2h1.5c0.1,0.1,0.3,0.2,0.5,0.2h1.8c0.1,0.1,0.3,0.2,0.4,0.2h1.5
	c0.1,0.1,0.3,0.2,0.4,0.2h0.4c0.6,0.1,1.1,0.2,1.7,0.3c0.6,0.1,1.1,0.1,1.7,0.1c0.6,0.1,1.2,0.3,1.8,0.3c0.6,0.1,1.2,0.2,1.8,0.3
	c1.2,0.2,2.4,0.4,3.5,0.7c1.2,0.4,2.4,0.7,3.7,1c1.1,0.3,2.3,0.6,3.6,1c1.3,0.4,2.5,0.7,3.8,1.2c0.7,0.1,1.4,0.3,2,0.6
	c0.6,0.3,1.2,0.5,1.8,0.6c0.7,0.3,1.4,0.5,2,0.7s1.3,0.5,2,0.7L672.5,580.3L672.5,580.3z"/>
<polygon class="st3" points="548.3,573.4 528,669.6 485,669.6 505.3,573.4 548.3,573.4 548.3,573.4 548.3,573.4 "/>
<path class="st1" d="M578,548c-1.2-3.4-8.2-1-8-3.5c0.6-8.6,29.9-13.2,24.8-24.6c-8.9-19.9-101.6,7.9-90,38.8
	C512.5,579.1,580.6,555.4,578,548L578,548z"/>
</svg>
